<svg 
 xmlns="http://www.w3.org/2000/svg"
 xmlns:xlink="http://www.w3.org/1999/xlink"
 width="50px" height="50px">
<path fill-rule="evenodd"  fill="rgb(25, 115, 248)"
 d="M25.000,-0.000 C38.807,-0.000 50.000,11.193 50.000,25.000 C50.000,38.807 38.807,50.000 25.000,50.000 C11.193,50.000 -0.000,38.807 -0.000,25.000 C-0.000,11.193 11.193,-0.000 25.000,-0.000 Z"/>
<path fill-rule="evenodd"  fill="rgb(255, 255, 255)"
 d="M33.442,37.006 L16.558,37.006 C15.396,37.006 14.447,36.061 14.447,34.896 L14.447,22.233 C14.447,22.232 14.447,22.232 14.447,22.232 C14.448,22.058 14.515,21.879 14.647,21.743 C14.649,21.741 14.651,21.738 14.654,21.735 L17.261,19.127 L17.261,13.697 C17.261,13.308 17.576,12.993 17.965,12.993 L32.035,12.993 C32.423,12.993 32.738,13.308 32.738,13.697 L32.738,19.127 L35.346,21.735 C35.479,21.868 35.552,22.050 35.552,22.232 C35.552,22.232 35.552,22.232 35.552,22.233 L35.552,34.896 C35.552,36.059 34.607,37.006 33.442,37.006 ZM33.151,35.599 L27.523,29.971 L22.477,29.971 L16.849,35.599 L33.151,35.599 ZM17.261,21.117 L16.146,22.233 L17.261,23.348 L17.261,21.117 ZM15.854,23.931 L15.854,34.604 L21.191,29.268 L15.854,23.931 ZM31.331,19.419 L31.331,19.419 L31.331,14.401 L18.668,14.401 L18.668,19.419 L18.668,19.419 L18.668,24.755 L22.477,28.564 L27.523,28.564 L31.331,24.755 L31.331,19.419 ZM32.738,21.117 L32.738,23.348 L33.854,22.233 L32.738,21.117 ZM34.145,23.931 L28.809,29.268 L34.145,34.604 L34.145,23.931 ZM23.109,23.696 C24.152,24.365 25.446,24.428 26.659,23.870 C27.012,23.708 27.430,23.863 27.592,24.215 C27.755,24.568 27.600,24.986 27.247,25.149 C25.588,25.912 23.804,25.813 22.349,24.881 C20.926,23.969 20.075,22.418 20.075,20.732 C20.075,18.017 22.285,15.807 25.000,15.807 C27.715,15.807 29.924,18.017 29.924,20.732 C29.924,21.896 28.978,22.843 27.814,22.843 C27.274,22.843 26.781,22.638 26.407,22.303 C26.033,22.638 25.540,22.843 25.000,22.843 C23.836,22.843 22.889,21.896 22.889,20.732 C22.889,19.568 23.836,18.622 25.000,18.622 C26.164,18.622 27.110,19.568 27.110,20.732 C27.110,20.735 27.110,20.739 27.111,20.743 C27.128,21.167 27.459,21.435 27.814,21.435 C28.202,21.435 28.517,21.120 28.517,20.732 C28.517,18.792 26.939,17.214 25.000,17.214 C23.060,17.214 21.482,18.792 21.482,20.732 C21.482,21.936 22.090,23.044 23.109,23.696 ZM25.000,20.028 C24.612,20.028 24.296,20.344 24.296,20.732 C24.296,21.120 24.612,21.435 25.000,21.435 C25.349,21.435 25.639,21.179 25.694,20.845 C25.686,20.781 25.688,20.715 25.698,20.652 C25.658,20.301 25.361,20.028 25.000,20.028 Z"/>
</svg>