<svg 
 xmlns="http://www.w3.org/2000/svg"
 xmlns:xlink="http://www.w3.org/1999/xlink"
 width="50px" height="50px">
<path fill-rule="evenodd"  fill="rgb(25, 115, 248)"
 d="M25.000,-0.000 C38.807,-0.000 50.000,11.193 50.000,25.000 C50.000,38.807 38.807,50.000 25.000,50.000 C11.193,50.000 -0.000,38.807 -0.000,25.000 C-0.000,11.193 11.193,-0.000 25.000,-0.000 Z"/>
<path fill-rule="evenodd"  fill="rgb(255, 255, 255)"
 d="M32.251,25.761 L25.721,36.664 C25.595,36.875 25.368,37.004 25.123,37.006 C25.121,37.006 25.119,37.006 25.117,37.006 C24.874,37.006 24.648,36.881 24.519,36.674 L17.818,25.875 C16.994,24.543 16.558,23.008 16.558,21.435 C16.558,16.780 20.345,12.993 25.000,12.993 C29.655,12.993 33.442,16.780 33.442,21.435 C33.442,22.962 33.030,24.457 32.251,25.761 ZM25.000,14.391 C21.121,14.391 17.956,17.556 17.956,21.435 C17.956,22.746 18.328,24.025 19.014,25.133 L25.107,34.951 L31.044,25.038 C31.692,23.953 32.040,22.707 32.040,21.435 C32.040,17.556 28.879,14.391 25.000,14.391 ZM25.000,25.656 C22.642,25.656 20.779,23.748 20.779,21.435 C20.779,19.108 22.673,17.214 25.000,17.214 C27.327,17.214 29.221,19.108 29.221,21.435 C29.221,23.723 27.387,25.656 25.000,25.656 ZM25.000,18.612 C23.448,18.612 22.177,19.884 22.177,21.435 C22.177,22.991 23.440,24.259 25.000,24.259 C26.584,24.259 27.819,22.968 27.819,21.435 C27.819,19.884 26.552,18.612 25.000,18.612 Z"/>
</svg>