<svg 
 xmlns="http://www.w3.org/2000/svg"
 xmlns:xlink="http://www.w3.org/1999/xlink"
 width="50px" height="50px">
<path fill-rule="evenodd"  fill="rgb(25, 115, 248)"
 d="M25.000,-0.000 C38.807,-0.000 50.000,11.193 50.000,25.000 C50.000,38.807 38.807,50.000 25.000,50.000 C11.193,50.000 0.000,38.807 0.000,25.000 C0.000,11.193 11.193,-0.000 25.000,-0.000 Z"/>
<path fill-rule="evenodd"  fill="rgb(255, 255, 255)"
 d="M36.258,25.688 C35.869,25.688 35.554,25.373 35.554,24.984 C35.554,19.165 30.820,14.430 25.000,14.430 C24.611,14.430 24.296,14.115 24.296,13.727 C24.296,13.338 24.611,13.023 25.000,13.023 C31.612,13.023 36.962,18.373 36.962,24.984 C36.962,25.373 36.647,25.688 36.258,25.688 ZM25.000,15.838 C30.044,15.838 34.147,19.941 34.147,24.984 C34.147,25.373 33.832,25.688 33.444,25.688 C33.055,25.688 32.740,25.373 32.740,24.984 C32.740,20.716 29.268,17.245 25.000,17.245 C24.611,17.245 24.296,16.930 24.296,16.541 C24.296,16.153 24.611,15.838 25.000,15.838 ZM25.000,21.466 C26.940,21.466 28.518,23.044 28.518,24.984 C28.518,25.373 28.203,25.688 27.815,25.688 C27.426,25.688 27.111,25.373 27.111,24.984 C27.111,23.820 26.164,22.874 25.000,22.874 C24.611,22.874 24.296,22.558 24.296,22.170 C24.296,21.781 24.611,21.466 25.000,21.466 ZM25.000,18.652 C28.492,18.652 31.333,21.493 31.333,24.984 C31.333,25.373 31.018,25.688 30.629,25.688 C30.240,25.688 29.925,25.373 29.925,24.984 C29.925,22.268 27.716,20.059 25.000,20.059 C24.611,20.059 24.296,19.744 24.296,19.356 C24.296,18.967 24.611,18.652 25.000,18.652 ZM20.873,22.240 C20.248,22.865 20.248,23.876 20.873,24.501 L25.592,29.108 C25.592,29.108 25.593,29.108 25.593,29.109 C26.218,29.734 27.230,29.734 27.854,29.109 L29.212,27.752 C30.037,26.927 31.372,26.927 32.197,27.752 C32.199,27.755 32.202,27.758 32.205,27.761 L35.177,30.836 C35.996,31.659 35.994,32.995 35.173,33.816 C35.157,33.831 34.102,34.803 34.086,34.818 C31.106,37.787 26.299,37.775 23.332,34.807 L15.175,26.763 C12.198,23.787 12.200,18.973 15.174,15.998 C15.174,15.998 15.264,15.908 15.265,15.908 C15.264,15.908 16.259,14.913 16.260,14.913 C17.083,14.090 18.422,14.090 19.245,14.913 L22.230,17.898 C23.053,18.720 23.053,20.060 22.230,20.883 L20.873,22.240 ZM34.186,32.813 C34.452,32.537 34.449,32.097 34.177,31.826 C34.172,31.820 31.204,28.749 31.198,28.743 C30.923,28.472 30.481,28.473 30.206,28.747 L29.709,29.245 L33.713,33.248 L34.186,32.813 ZM15.781,17.419 C13.762,19.844 13.871,23.469 16.169,25.767 L24.326,33.812 C26.623,36.109 30.226,36.235 32.675,34.201 L28.709,30.235 C27.526,31.278 25.727,31.232 24.599,30.105 L19.879,25.497 C18.752,24.369 18.708,22.564 19.747,21.385 L15.781,17.419 ZM21.235,18.893 L18.250,15.908 C17.975,15.633 17.529,15.633 17.255,15.908 L16.757,16.405 L20.737,20.385 L21.235,19.888 C21.510,19.612 21.510,19.168 21.235,18.893 Z"/>
</svg>
