<?xml version="1.0" encoding="UTF-8"?>
<!DOCTYPE svg PUBLIC "-//W3C//DTD SVG 1.1//EN" "http://www.w3.org/Graphics/SVG/1.1/DTD/svg11.dtd">
<!-- Creator: CorelDRAW X7 -->
<svg xmlns="http://www.w3.org/2000/svg" xml:space="preserve" width="187.266mm" height="61.141mm" version="1.1" style="shape-rendering:geometricPrecision; text-rendering:geometricPrecision; image-rendering:optimizeQuality; fill-rule:evenodd; clip-rule:evenodd"
viewBox="0 0 18727 6114"
 xmlns:xlink="http://www.w3.org/1999/xlink">
 <defs>
  <style type="text/css">
   <![CDATA[
    .fil0 {fill:#FEFEFE}
    .fil1 {fill:#FEFEFE;fill-rule:nonzero}
   ]]>
  </style>
 </defs>
 <g id="Слой_x0020_1">
  <metadata id="CorelCorpID_0Corel-Layer"/>
  <g id="_1995781722672">
   <g>
    <path class="fil0" d="M2777 28l1235 713c3,2 7,4 10,7l1227 708c64,36 99,103 100,172l0 0 0 2858c0,81 -48,150 -116,182l-1221 704 0 1 -1237 714c-65,38 -143,35 -203,-1l-1235 -713c-3,-2 -7,-4 -10,-7l-1226 -708c-64,-36 -100,-103 -100,-172l-1 0 0 -2858c0,-80 48,-150 117,-182l1221 -704 -1 -1 1238 -714c65,-38 142,-35 202,1zm0 721l923 533c4,2 7,4 10,6l915 528c64,37 100,104 100,173l0 0 0 2137c0,80 -47,150 -116,182l-909 524 0 1 -925 534c-65,37 -143,34 -203,-2l-923 -532c-3,-2 -7,-5 -10,-7l-914 -528c-64,-37 -100,-103 -100,-172l-1 0 0 -2137c0,-81 48,-151 117,-182l908 -525 0 0 926 -535c65,-37 142,-34 202,2z"/>
    <path class="fil0" d="M3352 2662c82,62 123,61 231,113 -49,58 -54,47 -145,59 -27,-74 -53,-92 -86,-172zm-454 -1844l166 760c22,28 54,57 101,90 85,60 71,92 103,205 80,288 283,410 364,565 489,35 481,43 466,-69 -5,-38 -53,-83 -22,-227 27,-127 81,-125 -9,-220 48,-140 82,-243 199,-299 255,-120 539,190 370,468 -348,570 158,259 -50,927 -44,142 -203,414 -281,474 -67,52 -38,16 -105,89 -363,400 -116,118 -315,246 -53,35 -75,130 -182,206 -94,67 -126,74 -208,158 -10,5 -402,105 -502,-220 -106,-5 -254,-3 -352,-23 -379,-77 -180,81 -408,-74 -102,33 -65,36 -122,119 -95,139 -255,221 -388,317 -424,307 -233,359 -461,471 -155,-86 -190,-203 -289,-301 -69,-70 -85,-57 -125,-166 -35,-94 -23,-156 50,-210 137,96 -39,96 232,167l259 -2c87,-35 271,-290 330,-377 61,-90 134,-145 195,-214 -253,12 -292,16 -528,-26 -144,-26 -354,-75 -491,-86 -345,-26 -641,438 -608,-279 -77,-100 -157,-184 -136,-387 16,-148 95,-257 255,-237 49,25 101,318 246,433l50 26c5,3 13,4 17,7 5,3 12,5 16,9l40 54c135,149 556,87 753,66 141,-15 314,26 432,-3 527,-131 427,-76 1050,-28 113,-109 122,-37 161,-232l-50 -41c-91,-84 57,81 -33,-40l92 -90c-17,-389 -67,-306 -132,-405 -105,-160 93,-299 62,-400 -53,-83 -71,-60 -133,-170 9,-127 41,-123 -12,-192l48 -75 -174 -798 59 34z"/>
   </g>
   <polygon class="fil1" points="7490,2794 7490,1908 6693,1908 6693,2794 6882,2794 6882,2074 7300,2074 7300,2794 "/>
   <path id="1" class="fil1" d="M7852 2794l0 -315 226 0c191,0 297,-131 297,-285 0,-156 -105,-286 -297,-286l-414 0 0 886 188 0zm201 -481l-201 0 0 -239 201 0c74,0 130,45 130,120 0,73 -56,119 -130,119z"/>
   <path id="2" class="fil1" d="M8911 2809c269,0 464,-191 464,-457 0,-267 -195,-458 -464,-458 -266,0 -462,191 -462,458 0,266 196,457 462,457zm0 -167c-163,0 -268,-126 -268,-290 0,-166 105,-291 268,-291 164,0 270,125 270,291 0,164 -106,290 -270,290z"/>
   <polygon id="3" class="fil1" points="10467,2794 10467,1908 10202,1908 9987,2443 9772,1908 9507,1908 9507,2794 9696,2794 9696,2174 9946,2794 10028,2794 10277,2174 10277,2794 "/>
   <path id="4" class="fil1" d="M10642 1908l0 886 415 0c192,0 297,-131 297,-286 0,-154 -106,-285 -297,-285l-226 0 0 -315 -189 0zm389 481c75,0 130,46 130,119 0,74 -55,120 -130,120l-200 0 0 -239 200 0zm587 405l0 -886 -190 0 0 886 190 0z"/>
   <polygon id="5" class="fil1" points="12733,1908 12733,2628 12453,2628 12453,1908 12263,1908 12263,2628 11982,2628 11982,1908 11793,1908 11793,2794 12923,2794 12923,1908 "/>
   <path id="6" class="fil1" d="M13045 2809c181,0 313,-67 356,-435l34 -300 270 0 0 720 190 0 0 -886 -630 0 -51 453c-28,233 -80,281 -169,281l0 167z"/>
   <polygon id="7" class="fil1" points="14695,2794 14695,2628 14257,2628 14257,2427 14686,2427 14686,2261 14257,2261 14257,2074 14695,2074 14695,1908 14069,1908 14069,2794 "/>
   <polygon id="8" class="fil1" points="15639,2794 15639,1908 15449,1908 15449,2256 15031,2256 15031,1908 14842,1908 14842,2794 15031,2794 15031,2422 15449,2422 15449,2794 "/>
   <polygon id="9" class="fil1" points="16609,2794 16609,1908 16420,1908 16420,2256 16001,2256 16001,1908 15813,1908 15813,2794 16001,2794 16001,2422 16420,2422 16420,2794 "/>
   <path id="10" class="fil1" d="M16783 1908l0 886 414 0c193,0 298,-131 298,-286 0,-154 -106,-285 -298,-285l-225 0 0 -315 -189 0zm389 481c75,0 130,46 130,119 0,74 -55,120 -130,120l-200 0 0 -239 200 0zm587 405l0 -886 -190 0 0 886 190 0z"/>
   <path id="11" class="fil1" d="M18116 2794l422 -594 0 594 189 0 0 -886 -194 0 -410 572 0 -572 -189 0 0 886 182 0zm447 -1044l-74 -62c-37,52 -92,82 -158,82 -69,0 -123,-32 -159,-82l-75 62c55,72 140,117 234,117 96,0 179,-45 232,-117z"/>
   <path id="12" class="fil1" d="M7519 4410l-341 -885 -236 0 -343 885 215 0 56 -150 379 0 55 150 215 0zm-321 -316l-276 0 138 -381 138 381z"/>
   <path id="13" class="fil1" d="M7548 4426c181,0 313,-67 356,-435l34 -300 270 0 0 719 190 0 0 -885 -629 0 -52 453c-28,233 -80,281 -169,281l0 167z"/>
   <path id="14" class="fil1" d="M8572 3525l0 885 414 0c192,0 297,-130 297,-285 0,-154 -106,-285 -297,-285l-226 0 0 -315 -188 0zm389 481c74,0 130,46 130,119 0,74 -56,119 -130,119l-201 0 0 -238 201 0z"/>
   <polygon id="15" class="fil1" points="10196,4410 10196,3525 9400,3525 9400,4410 9588,4410 9588,3691 10007,3691 10007,4410 "/>
   <polygon id="16" class="fil1" points="10552,4410 10974,3817 10974,4410 11163,4410 11163,3525 10969,3525 10559,4097 10559,3525 10370,3525 10370,4410 "/>
   <polygon id="17" class="fil1" points="12134,4410 12134,3525 11945,3525 11945,3873 11527,3873 11527,3525 11338,3525 11338,4410 11527,4410 11527,4039 11945,4039 11945,4410 "/>
   <polygon id="18" class="fil1" points="12490,4410 12912,3817 12912,4410 13101,4410 13101,3525 12907,3525 12497,4097 12497,3525 12308,3525 12308,4410 "/>
   <path id="19" class="fil1" d="M13580 4426c211,0 364,-107 364,-260 0,-133 -117,-203 -206,-212 97,-18 193,-91 193,-202 0,-147 -144,-240 -351,-240 -155,0 -281,59 -353,140l94 119c63,-60 154,-92 241,-92 100,0 180,34 180,105 0,65 -76,94 -180,94l-180 0 0 166 180 0c132,0 195,32 195,102 0,67 -68,113 -185,113 -86,0 -198,-37 -259,-101l-98 126c65,80 202,142 365,142z"/>
   <polygon id="20" class="fil1" points="15046,4410 15046,3525 14780,3525 14565,4060 14350,3525 14086,3525 14086,4410 14274,4410 14274,3790 14524,4410 14606,4410 14856,3790 14856,4410 "/>
  </g>
 </g>
</svg>
